<svg width="372" height="352" viewBox="0 0 372 352" fill="none" xmlns="http://www.w3.org/2000/svg">
<path d="M131.917 5.9518C147.796 16.721 155.898 33.191 159.117 50.9804C162.251 71.5174 158.009 93.3764 145.358 110.516C141.483 115.271 137.105 119.284 132.098 122.97C124.174 128.857 120.188 135.699 118.715 145.13C118.288 148.733 118.367 152.247 118.532 155.864C118.56 156.643 118.588 157.423 118.617 158.227C118.711 160.777 118.817 163.327 118.924 165.878C118.992 167.673 119.059 169.468 119.125 171.263C119.283 175.498 119.45 179.732 119.619 183.966C119.94 191.968 120.244 199.97 120.547 207.973C120.646 210.577 120.751 213.181 120.856 215.784C121.228 225.23 121.404 234.643 121.336 244.095C114.623 244.095 107.909 244.095 100.992 244.095C100.906 235.436 101.202 226.803 101.53 218.15C101.63 215.532 101.727 212.914 101.823 210.296C102.011 205.213 102.202 200.129 102.392 195.045C102.652 188.126 102.91 181.206 103.166 174.286C103.261 171.719 103.358 169.152 103.455 166.584C103.514 164.998 103.573 163.412 103.632 161.826C103.659 161.122 103.686 160.419 103.714 159.694C104.202 146.299 103.513 136.203 93.474 125.985C91.3953 124.118 89.1808 122.512 86.8697 120.916C72.5691 110.958 65.6378 95.0942 62.4844 79.0573C62.3505 78.3794 62.2166 77.7014 62.0786 77.0029C59.1498 56.7116 63.1297 34.6452 76.0502 17.8789C89.6237 1.08001 112.105 -5.9883 131.917 5.9518Z" fill="#BFCBD2"/>
<path d="M218.332 0.647217C221.318 1.04924 221.932 1.55583 223.781 3.72884C224.324 5.42764 224.324 5.42764 224.584 7.43374C224.692 8.22744 224.799 9.02115 224.909 9.83891C225.019 10.7696 225.127 11.7004 225.234 12.6313C225.297 13.1489 225.359 13.6664 225.424 14.1996C225.869 17.885 226.284 21.573 226.689 25.2624C226.919 27.3528 227.152 29.4427 227.387 31.5326C228.051 37.4676 228.712 43.4029 229.366 49.3389C229.768 52.9861 230.176 56.6328 230.586 60.2792C230.741 61.6638 230.894 63.0486 231.045 64.4336C231.256 66.3644 231.473 68.2944 231.691 70.2244C231.782 71.0782 231.782 71.0782 231.874 71.9493C232.195 74.7207 232.489 77.2659 233.953 79.7421C235.032 80.0811 235.032 80.0811 236.133 80.4269C236.852 79.975 237.571 79.523 238.313 79.0573C238.678 77.4806 238.678 77.4806 238.672 75.6094C238.695 74.8782 238.719 74.1469 238.744 73.3935C238.759 72.587 238.774 71.7804 238.789 70.9493C238.813 70.1023 238.837 69.2553 238.861 68.3827C238.934 65.5495 238.99 62.7164 239.039 59.8828C239.048 59.3931 239.057 58.9034 239.066 58.3988C239.22 49.9997 239.325 41.6 239.421 33.2002C239.459 29.9638 239.498 26.7274 239.542 23.4911C239.561 22.0062 239.576 20.5213 239.591 19.0364C239.764 4.62297 239.764 4.62297 241.991 1.88842C244.971 0.633287 246.677 0.599377 249.938 0.989619C252.3 2.58838 253.019 3.84622 253.57 6.46805C253.694 8.43848 253.783 10.397 253.841 12.3691C253.862 12.9642 253.882 13.5592 253.903 14.1722C253.946 15.4639 253.988 16.7556 254.029 18.0474C254.093 20.0981 254.162 22.1487 254.231 24.1992C254.353 27.8211 254.471 31.443 254.588 35.065C254.775 40.8424 254.965 46.6198 255.16 52.397C255.226 54.4057 255.29 56.4144 255.354 58.4232C255.519 63.4896 255.685 68.5593 256.01 73.619C256.047 74.2206 256.085 74.8221 256.123 75.4419C256.551 77.3305 257.277 78.328 258.656 79.7421C260.369 80.4872 260.369 80.4872 262.289 80.4269C263.948 79.6452 265.333 78.9271 266.648 77.6877C267.289 73.7811 267.524 69.923 267.635 65.9755C267.654 65.3779 267.673 64.7803 267.692 64.1645C267.733 62.8759 267.773 61.5872 267.811 60.2985C267.873 58.2537 267.938 56.209 268.005 54.1643C268.194 48.3539 268.377 42.5433 268.554 36.7325C268.662 33.1694 268.777 29.6066 268.895 26.0438C268.939 24.6924 268.981 23.341 269.02 21.9896C269.075 20.0939 269.137 18.1985 269.201 16.3031C269.215 15.7536 269.229 15.2041 269.244 14.638C269.385 10.7888 269.557 6.6709 271.008 3.04403C273.47 0.949856 275.114 0.630104 278.344 0.743517C280.488 1.12517 281.393 2.0932 282.633 3.72884C283.397 5.88848 283.468 7.45109 283.497 9.71987C283.509 10.5349 283.521 11.3499 283.534 12.1896C283.544 13.0786 283.554 13.9677 283.564 14.8837C283.577 15.8186 283.59 16.7535 283.604 17.6884C283.632 19.6779 283.658 21.6674 283.683 23.6569C283.742 28.2984 283.81 32.9397 283.879 37.5811C283.894 38.6117 283.909 39.6423 283.924 40.6729C284.056 49.7313 284.246 58.7874 284.495 67.8436C284.511 68.4353 284.527 69.0269 284.544 69.6365C284.63 72.7768 284.719 75.9171 284.813 79.0573C287.273 80.0909 287.273 80.0909 289.898 80.4269C291.185 73.2989 292.013 66.1447 292.806 58.9561C293.036 56.8739 293.27 54.792 293.504 52.7101C294.168 46.7978 294.827 40.885 295.483 34.9719C295.887 31.338 296.294 27.7046 296.704 24.0715C296.858 22.6942 297.011 21.3169 297.162 19.9393C297.374 18.014 297.591 16.0893 297.808 14.1646C297.869 13.6027 297.929 13.0409 297.991 12.462C298.391 8.99003 298.955 5.69667 300.07 2.35923C302.774 0.660646 304.138 0.6723 307.336 0.989619C309.196 2.35229 310.12 3.17688 310.608 5.37405C310.609 5.98944 310.61 6.60482 310.611 7.23885C310.619 7.94802 310.628 8.6572 310.636 9.38787C310.63 10.1623 310.624 10.9368 310.618 11.7347C310.623 12.5535 310.628 13.3723 310.634 14.2159C310.644 16.4619 310.642 18.7075 310.633 20.9535C310.625 23.3131 310.632 25.6727 310.637 28.0323C310.642 32.0028 310.635 35.9732 310.621 39.9437C310.605 44.5097 310.61 49.0754 310.626 53.6413C310.64 57.5759 310.641 61.5104 310.634 65.4449C310.629 67.7881 310.629 70.1311 310.638 72.4742C310.685 89.0073 309.11 102.733 296.438 115.352C292.373 118.988 288.078 121.795 283.178 124.297C276.072 127.951 272.339 132.557 269.89 139.79C267.979 148.815 269.739 159.462 270.093 168.603C270.193 171.178 270.29 173.754 270.386 176.33C270.591 181.798 270.799 187.267 271.008 192.735C271.25 199.08 271.491 205.425 271.728 211.77C271.823 214.287 271.92 216.804 272.018 219.322C272.331 227.583 272.558 235.828 272.461 244.095C271.262 243.869 270.063 243.643 268.828 243.41C268.828 242.958 268.828 242.506 268.828 242.041C268.424 242.14 268.019 242.238 267.602 242.34C263.785 243.216 260.402 243.545 256.477 243.41C256.477 242.958 256.477 242.506 256.477 242.041C255.038 242.267 253.599 242.493 252.117 242.726C251.999 232.709 252.371 222.718 252.753 212.709C252.818 210.949 252.884 209.189 252.948 207.429C253.136 202.358 253.326 197.287 253.517 192.216C253.777 185.309 254.035 178.401 254.291 171.493C254.386 168.932 254.483 166.371 254.58 163.81C254.639 162.228 254.698 160.647 254.757 159.065C254.784 158.364 254.811 157.662 254.839 156.94C254.965 153.483 255.055 150.027 255.091 146.569C255.098 145.92 255.105 145.272 255.113 144.604C254.818 138.467 251.917 132.791 247.19 128.58C244.55 126.617 241.738 125.128 238.767 123.655C226.189 117.342 218.589 107.656 214.322 95.094C213.349 91.8963 212.792 89.0157 212.776 85.6863C212.771 84.9653 212.766 84.2443 212.76 83.5015C212.757 82.3258 212.757 82.3258 212.754 81.1263C212.749 80.2953 212.745 79.4643 212.74 78.6081C212.725 75.8608 212.717 73.1135 212.71 70.3662C212.707 69.4189 212.704 68.4716 212.701 67.5243C212.687 63.0766 212.677 58.629 212.671 54.1813C212.663 49.0496 212.644 43.9181 212.615 38.7864C212.593 34.8165 212.582 30.8466 212.58 26.8767C212.578 24.5066 212.572 22.1367 212.553 19.7667C212.533 17.1255 212.536 14.4846 212.541 11.8433C212.527 10.6655 212.527 10.6655 212.513 9.46394C212.518 8.74486 212.523 8.02579 212.528 7.28493C212.527 6.66065 212.525 6.03638 212.523 5.39318C213.212 2.20344 215.043 1.0901 218.332 0.647217Z" fill="#CCD7DE"/>
<path d="M259.675 248.649C260.839 248.638 262.002 248.619 263.166 248.593C264.846 248.555 266.526 248.54 268.207 248.53C268.724 248.515 269.241 248.499 269.773 248.483C272.61 248.495 273.813 248.813 276.063 250.493C277.889 252.733 277.954 253.844 277.819 256.636C277.795 257.367 277.771 258.099 277.746 258.853C277.605 260.527 277.41 262.197 277.178 263.861C274.942 280.114 278.677 296.917 281.387 312.94C282.285 318.289 282.984 323.606 283.359 329.011C283.411 329.684 283.462 330.357 283.515 331.051C283.828 335.888 282.714 339.437 279.727 343.392C274.875 348.504 270.498 350.859 263.264 351.267C256.285 351.464 250.822 349.917 245.442 345.516C241.886 341.983 239.604 337.863 239.622 332.921C239.677 331.854 239.749 330.788 239.834 329.722C239.893 328.842 239.893 328.842 239.953 327.945C240.531 320.344 241.799 312.824 243.035 305.3C243.387 303.118 243.738 300.936 244.086 298.753C244.301 297.411 244.519 296.07 244.739 294.728C245.629 289.238 246.394 283.762 246.401 278.199C246.402 277.47 246.403 276.742 246.404 275.991C246.4 274.884 246.4 274.884 246.396 273.756C246.398 273.01 246.401 272.265 246.404 271.497C246.399 267.765 246.223 264.221 245.578 260.531C244.99 252.583 244.99 252.583 247.758 249.574C251.085 248.006 255.98 248.675 259.675 248.649ZM255.023 330.381C254.151 332.848 254.041 333.943 255.16 336.33C257.118 338.684 258.301 339.838 261.517 340.225C264.072 339.93 265.373 339.433 267.375 337.913C268.621 335.939 268.834 334.733 268.783 332.435C267.887 329.732 266.905 328.617 264.469 326.957C260.196 325.948 257.615 326.975 255.023 330.381Z" fill="#5F4743"/>
<path d="M104.213 248.635C104.733 248.629 105.252 248.622 105.788 248.616C106.884 248.606 107.98 248.6 109.076 248.597C110.748 248.589 112.417 248.556 114.089 248.521C115.156 248.515 116.224 248.51 117.292 248.506C117.788 248.493 118.285 248.48 118.796 248.466C121.616 248.491 122.709 248.827 124.91 250.548C127.178 253.196 127.23 254.208 126.902 257.607C126.759 258.624 126.614 259.642 126.467 260.659C124.255 278.055 127.382 295.226 130.262 312.41C134.186 335.878 134.186 335.878 129.822 342.025C125.176 347.229 120.823 350.476 113.608 351.184C106.837 351.566 101.571 350.618 95.9063 346.816C91.4289 343.066 89.2133 338.73 88.6406 333.12C88.6963 330.729 88.917 328.361 89.1572 325.98C89.2237 325.292 89.2902 324.605 89.3587 323.896C90.0785 316.866 91.2202 309.907 92.3779 302.932C94.7409 288.559 96.8291 274.356 94.4531 259.846C94.3759 258.663 94.3269 257.478 94.3169 256.293C94.3066 255.733 94.2963 255.172 94.2857 254.595C94.4745 252.794 94.8282 251.755 95.9063 250.258C98.5038 248.603 101.183 248.657 104.213 248.635ZM103.898 330.381C102.882 332.717 103.075 333.565 104.035 335.945C105.353 337.916 106.061 338.932 108.258 339.968C110.77 340.424 110.77 340.424 113.344 339.968C115.963 337.928 117.551 336.461 117.93 333.248C117.651 330.565 116.764 329.55 114.797 327.641C110.288 325.517 106.72 326.754 103.898 330.381Z" fill="#5F4743"/>
<path d="M254.66 244.702C255.448 244.706 256.236 244.709 257.047 244.713C258.322 244.716 258.322 244.716 259.623 244.72C260.965 244.728 260.965 244.728 262.334 244.737C263.681 244.742 263.681 244.742 265.055 244.747C267.281 244.755 269.508 244.766 271.734 244.78C271.974 246.136 272.214 247.492 272.461 248.889C265.748 248.889 259.034 248.889 252.117 248.889C252.117 244.811 252.117 244.811 254.66 244.702Z" fill="#84919E"/>
<path d="M101.719 246.15C107.953 246.15 114.187 246.15 120.609 246.15C120.849 247.054 121.089 247.958 121.336 248.889C114.623 248.889 107.909 248.889 100.992 248.889C101.232 247.985 101.472 247.081 101.719 246.15Z" fill="#7B8996"/>
<path d="M100.992 244.095C107.706 244.095 114.419 244.095 121.336 244.095C121.096 244.999 120.856 245.903 120.609 246.834C114.136 246.834 107.662 246.834 100.992 246.834C100.992 245.93 100.992 245.027 100.992 244.095Z" fill="#9DAAB4"/>
<path d="M256.477 241.356C256.716 241.808 256.956 242.26 257.203 242.726C262.958 242.387 262.958 242.387 268.828 242.041C268.828 242.493 268.828 242.945 268.828 243.41C270.626 243.749 270.626 243.749 272.461 244.095C272.221 244.773 271.981 245.451 271.734 246.15C271.734 245.698 271.734 245.246 271.734 244.78C262.024 245.119 262.024 245.119 252.117 245.465C252.117 244.561 252.117 243.657 252.117 242.726C253.556 242.274 254.994 241.822 256.477 241.356Z" fill="#A9B5BF"/>
</svg>
